<svg width="559" height="266" viewBox="0 0 559 266" fill="none" xmlns="http://www.w3.org/2000/svg">
<path d="M37.248 117.752C28.032 146.936 23.424 164.6 23.424 170.744C23.424 172.792 24.0213 174.499 25.216 175.864C26.5813 177.059 28.288 177.656 30.336 177.656C49.9627 177.656 71.6373 174.499 95.36 168.184C103.04 166.136 107.477 165.112 108.672 165.112C111.232 165.112 112.512 166.904 112.512 170.488C112.512 176.632 103.04 182.947 84.096 189.432C65.3227 195.917 47.1467 199.16 29.568 199.16C21.7173 199.16 14.8053 196.856 8.83199 192.248C3.02932 187.64 0.127991 181.837 0.127991 174.84C0.127991 167.843 2.60266 155.896 7.55199 139C12.672 122.104 17.792 104.099 22.912 84.984C28.032 65.8693 30.592 49.7413 30.592 36.6C30.592 34.7227 30.9333 32.76 31.616 30.712C34.5173 24.3973 53.12 21.24 87.424 21.24C121.728 21.24 138.88 23.7147 138.88 28.664C138.88 32.0773 135.211 34.3813 127.872 35.576C121.728 36.7707 113.536 37.88 103.296 38.904C93.2267 39.7573 86.144 40.44 82.048 40.952C77.952 41.2933 68.0533 42.8293 52.352 45.56V46.328C52.352 57.9333 49.1947 75.4267 42.88 98.808C43.904 98.9787 47.3173 99.064 53.12 99.064C59.0933 99.064 67.0293 98.6373 76.928 97.784C86.8267 96.9307 94.2507 96.504 99.2 96.504C104.32 96.504 106.88 97.6987 106.88 100.088C106.88 106.061 99.8827 110.499 85.888 113.4C71.8933 116.301 55.68 117.752 37.248 117.752Z" fill="#EA580C"/>
<path d="M254.838 86.008C254.838 87.544 247.243 95.5653 232.054 110.072C226.422 115.533 221.217 122.019 216.438 129.528C211.83 136.867 209.526 143.608 209.526 149.752C209.526 155.896 211.318 161.613 214.902 166.904C218.657 172.024 222.667 175.949 226.934 178.68C231.371 181.24 235.382 183.8 238.966 186.36C242.721 188.92 244.598 191.053 244.598 192.76C244.598 197.027 241.185 199.16 234.358 199.16C227.702 199.16 219.681 195.405 210.294 187.896C201.078 180.216 195.361 171.683 193.142 162.296C192.289 160.589 191.606 158.968 191.094 157.432C179.489 173.133 171.041 184.056 165.75 190.2C160.63 196.173 156.79 199.16 154.23 199.16C151.67 199.16 148.854 197.197 145.782 193.272C142.71 189.176 141.174 185.848 141.174 183.288C141.174 180.557 143.905 169.549 149.366 150.264C154.998 130.808 160.545 107.512 166.006 80.376C171.638 53.24 174.454 29.0053 174.454 7.672C174.454 4.94132 174.795 3.06399 175.478 2.03999C176.331 1.016 178.038 0.503998 180.598 0.503998C183.158 0.503998 186.315 3.064 190.07 8.18399C193.825 13.1333 195.702 17.9973 195.702 22.776C195.702 37.9653 192.63 59.2133 186.486 86.52C180.342 113.827 173.003 139.768 164.47 164.344C183.755 136.867 200.395 114.68 214.39 97.784C228.555 80.7173 237.259 72.184 240.502 72.184C243.915 72.184 247.158 73.8053 250.23 77.048C253.302 80.2907 254.838 83.2773 254.838 86.008Z" fill="#EA580C"/>
<path d="M329.782 72.184C337.462 72.184 344.545 76.1093 351.03 83.96C357.515 91.64 360.758 98.6373 360.758 104.952C360.758 111.096 358.625 117.411 354.358 123.896C356.406 126.456 357.43 128.675 357.43 130.552C357.43 135.331 356.321 143.523 354.102 155.128C352.054 166.733 350.774 174.328 350.262 177.912C349.921 181.496 349.579 184.397 349.238 186.616C348.897 188.664 348.47 190.712 347.958 192.76C347.275 197.027 345.739 199.16 343.35 199.16C340.278 199.16 337.718 196.515 335.67 191.224C333.793 185.763 332.683 178.765 332.342 170.232C317.153 189.517 303.073 199.16 290.102 199.16C282.251 199.16 274.486 195.832 266.806 189.176C259.297 182.349 255.542 175.352 255.542 168.184C255.542 157.944 259.297 145.315 266.806 130.296C274.315 115.107 284.043 101.624 295.99 89.848C307.937 78.072 319.201 72.184 329.782 72.184ZM341.558 117.24C341.558 101.368 338.401 93.432 332.086 93.432C325.43 93.432 317.665 98.2107 308.79 107.768C299.915 117.155 292.406 127.821 286.262 139.768C280.118 151.715 277.046 161.187 277.046 168.184C277.046 171.085 278.241 173.475 280.63 175.352C283.019 177.059 285.835 177.912 289.078 177.912C297.099 177.912 306.145 172.536 316.214 161.784C326.283 150.861 333.281 137.635 337.206 122.104C337.718 119.544 339.169 118.008 341.558 117.496V117.24Z" fill="#EA580C"/>
<path d="M432.118 22.008C432.118 54.0933 425.462 95.736 412.15 146.936C403.617 181.752 397.643 199.16 394.23 199.16C391.841 199.16 389.025 197.283 385.782 193.528C382.71 189.773 381.174 186.872 381.174 184.824C381.174 182.776 383.649 172.195 388.598 153.08C393.547 133.965 398.497 110.499 403.446 82.68C408.395 54.6907 410.87 29.5173 410.87 7.15999C410.87 4.77066 411.211 3.06399 411.894 2.03999C412.577 1.016 414.027 0.503998 416.246 0.503998C418.465 0.503998 421.622 2.97866 425.718 7.92799C429.985 12.7067 432.118 17.4 432.118 22.008Z" fill="#EA580C"/>
<path d="M544.532 72.184C547.263 72.184 550.164 74.232 553.236 78.328C556.479 82.2533 558.1 86.6907 558.1 91.64C558.1 95.0533 554.601 106.659 547.604 126.456C540.607 146.253 535.828 159.736 533.268 166.904C530.879 173.901 527.551 183.288 523.284 195.064C519.188 206.669 515.177 218.019 511.252 229.112C502.719 253.517 489.919 265.72 472.852 265.72C463.124 265.72 453.823 262.733 444.948 256.76C436.073 250.957 431.636 244.899 431.636 238.584C431.636 236.195 432.745 233.549 434.964 230.648C437.012 227.747 438.804 226.296 440.34 226.296C441.876 226.296 444.351 228.173 447.764 231.928C457.663 243.192 466.111 248.824 473.108 248.824C478.399 248.824 483.177 244.131 487.444 234.744C491.711 225.528 495.721 215.032 499.476 203.256C503.401 191.651 505.535 185.251 505.876 184.056C506.388 182.861 506.9 181.325 507.412 179.448C508.095 177.571 508.692 175.864 509.204 174.328C497.087 190.883 485.14 199.16 473.364 199.16C466.196 199.16 459.54 195.832 453.396 189.176C447.423 182.52 444.436 174.669 444.436 165.624C444.436 156.579 446.655 144.376 451.092 129.016C455.529 113.656 460.735 100.344 466.708 89.08C472.681 77.816 477.545 72.184 481.3 72.184C484.372 72.184 487.188 73.6347 489.748 76.536C492.479 79.2667 493.844 82.0827 493.844 84.984C493.844 87.8853 491.625 93.944 487.188 103.16C473.364 131.491 466.452 153.507 466.452 169.208C466.452 171.939 467.305 174.243 469.012 176.12C470.719 177.827 472.767 178.68 475.156 178.68C481.3 178.68 488.639 173.219 497.172 162.296C505.705 151.373 513.556 138.403 520.724 123.384C526.697 110.755 532.927 94.6267 539.412 75C540.095 73.1227 541.801 72.184 544.532 72.184Z" fill="#EA580C"/>
</svg>
